<?xml version="1.0" encoding="UTF-8"?>
<svg id="Layer_1" data-name="Layer 1" xmlns="http://www.w3.org/2000/svg" viewBox="0 0 500 500">
  <defs>
    <style>
      .cls-1, .cls-2, .cls-3 {
        fill: none;
      }

      .cls-4, .cls-5, .cls-6 {
        fill: #ccc;
      }

      .cls-5, .cls-7 {
        opacity: 0;
      }

      .cls-2 {
        stroke-width: 1.5px;
      }

      .cls-2, .cls-3 {
        stroke: #ccc;
        stroke-miterlimit: 10;
      }

      .cls-8, .cls-6 {
        opacity: .5;
      }

      .cls-9 {
        opacity: .2;
      }

      .cls-3 {
        stroke-width: 3px;
      }
    </style>
  </defs>
  <g class="cls-9">
    <line class="cls-2" x1="62.25" x2="62.25" y2="500"/>
    <line class="cls-2" x1="187.5" x2="187.5" y2="500"/>
    <line class="cls-2" x1="312.25" x2="312.25" y2="500"/>
    <line class="cls-2" x1="437.5" x2="437.5" y2="500"/>
    <line class="cls-2" y1="62.5" x2="500" y2="62.5"/>
    <line class="cls-2" y1="187.5" x2="500" y2="187.5"/>
    <line class="cls-2" y1="312.5" x2="500" y2="312.5"/>
    <line class="cls-2" y1="437.5" x2="500" y2="437.5"/>
  </g>
  <g class="cls-7">
    <polyline class="cls-3" points="312.25 322.5 312.25 312.25 312.25 302.5"/>
    <polyline class="cls-3" points="302.5 312.25 312.25 312.25 322.5 312.25"/>
  </g>
  <g class="cls-7">
    <polyline class="cls-3" points="187.25 447.5 187.25 437.25 187.25 427.5"/>
    <polyline class="cls-3" points="177.5 437.25 187.25 437.25 197.5 437.25"/>
  </g>
  <g class="cls-8">
    <g>
      <polyline class="cls-3" points="69.39 69.74 62.14 62.5 55.25 55.6"/>
      <polyline class="cls-3" points="55.25 69.39 62.14 62.5 69.39 55.25"/>
    </g>
    <g class="cls-8">
      <polyline class="cls-3" points="194.39 69.74 187.14 62.5 180.25 55.6"/>
      <polyline class="cls-3" points="180.25 69.39 187.14 62.5 194.39 55.25"/>
    </g>
    <g>
      <polyline class="cls-3" points="319.39 69.74 312.14 62.5 305.25 55.6"/>
      <polyline class="cls-3" points="305.25 69.39 312.14 62.5 319.39 55.25"/>
    </g>
    <g class="cls-8">
      <polyline class="cls-3" points="444.39 69.74 437.14 62.5 430.25 55.6"/>
      <polyline class="cls-3" points="430.25 69.39 437.14 62.5 444.39 55.25"/>
    </g>
    <g class="cls-8">
      <polyline class="cls-3" points="69.39 194.74 62.14 187.5 55.25 180.6"/>
      <polyline class="cls-3" points="55.25 194.39 62.14 187.5 69.39 180.25"/>
    </g>
    <g class="cls-8">
      <polyline class="cls-3" points="194.39 194.74 187.14 187.5 180.25 180.6"/>
      <polyline class="cls-3" points="180.25 194.39 187.14 187.5 194.39 180.25"/>
    </g>
    <g>
      <polyline class="cls-3" points="319.39 194.74 312.14 187.5 305.25 180.6"/>
      <polyline class="cls-3" points="305.25 194.39 312.14 187.5 319.39 180.25"/>
    </g>
    <g>
      <polyline class="cls-3" points="444.39 194.74 437.14 187.5 430.25 180.6"/>
      <polyline class="cls-3" points="430.25 194.39 437.14 187.5 444.39 180.25"/>
    </g>
    <g>
      <polyline class="cls-3" points="69.39 319.75 62.14 312.5 55.25 305.6"/>
      <polyline class="cls-3" points="55.25 319.39 62.14 312.5 69.39 305.25"/>
    </g>
    <g>
      <polyline class="cls-3" points="194.39 319.75 187.14 312.5 180.25 305.6"/>
      <polyline class="cls-3" points="180.25 319.39 187.14 312.5 194.39 305.25"/>
    </g>
    <g class="cls-8">
      <polyline class="cls-3" points="444.39 319.75 437.14 312.5 430.25 305.6"/>
      <polyline class="cls-3" points="430.25 319.39 437.14 312.5 444.39 305.25"/>
    </g>
    <g>
      <polyline class="cls-3" points="69.39 444.75 62.14 437.5 55.25 430.61"/>
      <polyline class="cls-3" points="55.25 444.39 62.14 437.5 69.39 430.25"/>
    </g>
    <g>
      <polyline class="cls-3" points="319.39 444.75 312.14 437.5 305.25 430.61"/>
      <polyline class="cls-3" points="305.25 444.39 312.14 437.5 319.39 430.25"/>
    </g>
    <g class="cls-8">
      <polyline class="cls-3" points="444.39 444.75 437.14 437.5 430.25 430.61"/>
      <polyline class="cls-3" points="430.25 444.39 437.14 437.5 444.39 430.25"/>
    </g>
  </g>
  <g class="cls-9">
    <path class="cls-1" d="M498.5,0h-28.25v1.5h-3V0h-28.25v1.5h-3V0h-28.25v1.5h-3V0h-28.25v1.5h-3V0h-90.75v1.5h-3V0h-59.5v1.5h-3V0h-28.25v1.5h-3V0h-28.25v1.5h-3V0h-28.25v1.5h-3V0h-28.25v1.5h-3V0h-28.25v1.5h-3V0h-28.25v1.5h-3V0H1.5v1.5H0v28.25h1.5v3H0v28.25h1.5v3H0v28.25h1.5v3H0v28.25h1.5v3H0v28.25h1.5v3H0v28.25h1.5v3H0v28.25h1.5v3H0v28.25h1.5v3H0v28.25h1.5v3H0v28.25h1.5v3H0v28.25h1.5v3H0v28.25h1.5v3H0v28.25h1.5v3H0v28.25h1.5v3H0v28.25h1.5v3H0v28.25h1.5v1.5h28.25v-1.5h3v1.5h28.25v-1.5h3v1.5h28.25v-1.5h3v1.5h28.25v-1.5h3v1.5h28.25v-1.5h3v1.5h28.25v-1.5h3v1.5h28.25v-1.5h3v1.5h28.25v-1.5h3v1.5h28.25v-1.5h3v1.5h28.25v-1.5h3v1.5h28.25v-1.5h3v1.5h28.25v-1.5h3v1.5h28.25v-1.5h3v1.5h90.75v-1.5h1.5v-28.25h-1.5v-3h1.5v-28.25h-1.5v-3h1.5v-28.25h-1.5v-3h1.5v-28.25h-1.5v-3h1.5v-28.25h-1.5v-3h1.5v-59.5h-1.5v-3h1.5v-28.25h-1.5v-3h1.5v-28.25h-1.5v-3h1.5v-28.25h-1.5v-3h1.5v-28.25h-1.5v-3h1.5v-28.25h-1.5v-3h1.5v-28.25h-1.5v-3h1.5v-28.25h-1.5v-3h1.5v-28.25h-1.5v-3h1.5V1.5h-1.5V0ZM21.25,240h-3v-3h3v3ZM32.75,470.25h-3v-3h3v3ZM32.75,439h-3v-3h3v3ZM32.75,407.75h-3v-3h3v3ZM32.75,376.5h-3v-3h3v3ZM32.75,345.25h-3v-3h3v3ZM32.75,314h-3v-3h3v3ZM32.75,282.75h-3v-3h3v3ZM32.75,220.25h-3v-3h3v3ZM32.75,189h-3v-3h3v3ZM32.75,157.75h-3v-3h3v3ZM32.75,126.5h-3v-3h3v3ZM32.75,95.25h-3v-3h3v3ZM32.75,64h-3v-3h3v3ZM32.75,32.75h-3v-3h3v3ZM52.5,427.5h-3v-3h3v3ZM64,470.25h-3v-3h3v3ZM64,407.75h-3v-3h3v3ZM64,376.5h-3v-3h3v3ZM64,345.25h-3v-3h3v3ZM64,314h-3v-3h3v3ZM64,282.75h-3v-3h3v3ZM64,251.5h-3v-3h3v3ZM64,220.25h-3v-3h3v3ZM64,189h-3v-3h3v3ZM64,157.75h-3v-3h3v3ZM64,126.5h-3v-3h3v3ZM64,95.25h-3v-3h3v3ZM64,64h-3v-3h3v3ZM64,32.75h-3v-3h3v3ZM83.75,365h-3v-3h3v3ZM95.25,470.25h-3v-3h3v3ZM95.25,439h-3v-3h3v3ZM95.25,407.75h-3v-3h3v3ZM95.25,345.25h-3v-3h3v3ZM95.25,314h-3v-3h3v3ZM95.25,282.75h-3v-3h3v3ZM95.25,251.5h-3v-3h3v3ZM95.25,220.25h-3v-3h3v3ZM95.25,189h-3v-3h3v3ZM95.25,157.75h-3v-3h3v3ZM95.25,126.5h-3v-3h3v3ZM95.25,95.25h-3v-3h3v3ZM95.25,64h-3v-3h3v3ZM95.25,32.75h-3v-3h3v3ZM126.5,470.25h-3v-3h3v3ZM126.5,439h-3v-3h3v3ZM126.5,407.75h-3v-3h3v3ZM126.5,376.5h-3v-3h3v3ZM126.5,345.25h-3v-3h3v3ZM126.5,314h-3v-3h3v3ZM126.5,282.75h-3v-3h3v3ZM126.5,251.5h-3v-3h3v3ZM126.5,220.25h-3v-3h3v3ZM126.5,189h-3v-3h3v3ZM126.5,157.75h-3v-3h3v3ZM126.5,126.5h-3v-3h3v3ZM126.5,95.25h-3v-3h3v3ZM126.5,64h-3v-3h3v3ZM126.5,32.75h-3v-3h3v3ZM146.25,115h-3v-3h3v3ZM157.75,470.25h-3v-3h3v3ZM157.75,439h-3v-3h3v3ZM157.75,407.75h-3v-3h3v3ZM157.75,376.5h-3v-3h3v3ZM157.75,345.25h-3v-3h3v3ZM157.75,314h-3v-3h3v3ZM157.75,282.75h-3v-3h3v3ZM157.75,251.5h-3v-3h3v3ZM157.75,220.25h-3v-3h3v3ZM157.75,189h-3v-3h3v3ZM157.75,157.75h-3v-3h3v3ZM157.75,95.25h-3v-3h3v3ZM157.75,64h-3v-3h3v3ZM157.75,32.75h-3v-3h3v3ZM177.5,458.75h-3v-3h3v3ZM189,439h-3v-3h3v3ZM189,407.75h-3v-3h3v3ZM189,376.5h-3v-3h3v3ZM189,345.25h-3v-3h3v3ZM189,314h-3v-3h3v3ZM189,282.75h-3v-3h3v3ZM189,251.5h-3v-3h3v3ZM189,220.25h-3v-3h3v3ZM189,189h-3v-3h3v3ZM189,157.75h-3v-3h3v3ZM189,126.5h-3v-3h3v3ZM189,95.25h-3v-3h3v3ZM189,64h-3v-3h3v3ZM189,32.75h-3v-3h3v3ZM208.75,333.75h-3v-3h3v3ZM220.25,470.25h-3v-3h3v3ZM220.25,439h-3v-3h3v3ZM220.25,407.75h-3v-3h3v3ZM220.25,376.5h-3v-3h3v3ZM220.25,314h-3v-3h3v3ZM220.25,282.75h-3v-3h3v3ZM220.25,251.5h-3v-3h3v3ZM220.25,220.25h-3v-3h3v3ZM220.25,189h-3v-3h3v3ZM220.25,157.75h-3v-3h3v3ZM220.25,126.5h-3v-3h3v3ZM220.25,95.25h-3v-3h3v3ZM220.25,64h-3v-3h3v3ZM220.25,32.75h-3v-3h3v3ZM240,240h-3v-3h3v3ZM251.5,470.25h-3v-3h3v3ZM251.5,439h-3v-3h3v3ZM251.5,407.75h-3v-3h3v3ZM251.5,376.5h-3v-3h3v3ZM251.5,345.25h-3v-3h3v3ZM251.5,314h-3v-3h3v3ZM251.5,282.75h-3v-3h3v3ZM251.5,220.25h-3v-3h3v3ZM251.5,189h-3v-3h3v3ZM251.5,157.75h-3v-3h3v3ZM251.5,126.5h-3v-3h3v3ZM251.5,95.25h-3v-3h3v3ZM251.5,64h-3v-3h3v3ZM251.5,32.75h-3v-3h3v3ZM282.75,470.25h-3v-3h3v3ZM282.75,439h-3v-3h3v3ZM282.75,407.75h-3v-3h3v3ZM282.75,376.5h-3v-3h3v3ZM282.75,345.25h-3v-3h3v3ZM282.75,314h-3v-3h3v3ZM282.75,282.75h-3v-3h3v3ZM282.75,251.5h-3v-3h3v3ZM282.75,220.25h-3v-3h3v3ZM282.75,189h-3v-3h3v3ZM282.75,157.75h-3v-3h3v3ZM282.75,126.5h-3v-3h3v3ZM282.75,95.25h-3v-3h3v3ZM282.75,64h-3v-3h3v3ZM282.75,32.75h-3v-3h3v3ZM302.5,83.75h-3v-3h3v3ZM314,470.25h-3v-3h3v3ZM314,439h-3v-3h3v3ZM314,407.75h-3v-3h3v3ZM314,376.5h-3v-3h3v3ZM314,345.25h-3v-3h3v3ZM314,314h-3v-3h3v3ZM314,282.75h-3v-3h3v3ZM314,251.5h-3v-3h3v3ZM314,220.25h-3v-3h3v3ZM314,189h-3v-3h3v3ZM314,157.75h-3v-3h3v3ZM314,126.5h-3v-3h3v3ZM314,64h-3v-3h3v3ZM314,32.75h-3v-3h3v3ZM345.25,470.25h-3v-3h3v3ZM345.25,439h-3v-3h3v3ZM345.25,407.75h-3v-3h3v3ZM345.25,376.5h-3v-3h3v3ZM345.25,345.25h-3v-3h3v3ZM345.25,314h-3v-3h3v3ZM345.25,282.75h-3v-3h3v3ZM345.25,251.5h-3v-3h3v3ZM345.25,220.25h-3v-3h3v3ZM345.25,189h-3v-3h3v3ZM345.25,157.75h-3v-3h3v3ZM345.25,126.5h-3v-3h3v3ZM345.25,95.25h-3v-3h3v3ZM345.25,64h-3v-3h3v3ZM345.25,32.75h-3v-3h3v3ZM365,302.5h-3v-3h3v3ZM376.5,470.25h-3v-3h3v3ZM376.5,439h-3v-3h3v3ZM376.5,407.75h-3v-3h3v3ZM376.5,376.5h-3v-3h3v3ZM376.5,345.25h-3v-3h3v3ZM376.5,282.75h-3v-3h3v3ZM376.5,251.5h-3v-3h3v3ZM376.5,220.25h-3v-3h3v3ZM376.5,189h-3v-3h3v3ZM376.5,157.75h-3v-3h3v3ZM376.5,126.5h-3v-3h3v3ZM376.5,95.25h-3v-3h3v3ZM376.5,64h-3v-3h3v3ZM376.5,32.75h-3v-3h3v3ZM407.75,470.25h-3v-3h3v3ZM407.75,439h-3v-3h3v3ZM407.75,407.75h-3v-3h3v3ZM407.75,376.5h-3v-3h3v3ZM407.75,345.25h-3v-3h3v3ZM407.75,314h-3v-3h3v3ZM407.75,282.75h-3v-3h3v3ZM407.75,251.5h-3v-3h3v3ZM407.75,220.25h-3v-3h3v3ZM407.75,189h-3v-3h3v3ZM407.75,157.75h-3v-3h3v3ZM407.75,126.5h-3v-3h3v3ZM407.75,95.25h-3v-3h3v3ZM407.75,64h-3v-3h3v3ZM407.75,32.75h-3v-3h3v3ZM427.5,490h-3v-3h3v3ZM439,470.25h-3v-3h3v3ZM439,439h-3v-3h3v3ZM439,407.75h-3v-3h3v3ZM439,376.5h-3v-3h3v3ZM439,345.25h-3v-3h3v3ZM439,314h-3v-3h3v3ZM439,282.75h-3v-3h3v3ZM439,251.5h-3v-3h3v3ZM439,220.25h-3v-3h3v3ZM439,189h-3v-3h3v3ZM439,157.75h-3v-3h3v3ZM439,126.5h-3v-3h3v3ZM439,95.25h-3v-3h3v3ZM439,64h-3v-3h3v3ZM439,32.75h-3v-3h3v3ZM458.75,490h-3v-3h3v3ZM458.75,21.25h-3v-3h3v3ZM470.25,470.25h-3v-3h3v3ZM470.25,439h-3v-3h3v3ZM470.25,407.75h-3v-3h3v3ZM470.25,376.5h-3v-3h3v3ZM470.25,345.25h-3v-3h3v3ZM470.25,314h-3v-3h3v3ZM470.25,282.75h-3v-3h3v3ZM470.25,251.5h-3v-3h3v3ZM470.25,220.25h-3v-3h3v3ZM470.25,189h-3v-3h3v3ZM470.25,157.75h-3v-3h3v3ZM470.25,126.5h-3v-3h3v3ZM470.25,95.25h-3v-3h3v3ZM470.25,64h-3v-3h3v3ZM490,302.5h-3v-3h3v3Z"/>
    <rect class="cls-4" x="0" y="0" width="1.5" height="1.5"/>
    <rect class="cls-6" x="29.75" y="0" width="3" height="1.5"/>
    <rect class="cls-4" x="61" y="0" width="3" height="1.5"/>
    <rect class="cls-5" x="92.25" y="0" width="3" height="1.5"/>
    <rect class="cls-6" x="123.5" y="0" width="3" height="1.5"/>
    <rect class="cls-5" x="154.75" y="0" width="3" height="1.5"/>
    <rect class="cls-4" x="186" y="0" width="3" height="1.5"/>
    <rect class="cls-4" x="217.25" y="0" width="3" height="1.5"/>
    <rect class="cls-4" x="279.75" y="0" width="3" height="1.5"/>
    <rect class="cls-4" x="373.5" y="0" width="3" height="1.5"/>
    <rect class="cls-6" x="404.75" y="0" width="3" height="1.5"/>
    <rect class="cls-4" x="436" y="0" width="3" height="1.5"/>
    <rect class="cls-4" x="467.25" y="0" width="3" height="1.5"/>
    <rect class="cls-4" x="498.5" y="0" width="1.5" height="1.5"/>
    <rect class="cls-4" x="0" y="29.75" width="1.5" height="3"/>
    <rect class="cls-4" x="29.75" y="29.75" width="3" height="3"/>
    <rect class="cls-4" x="61" y="29.75" width="3" height="3"/>
    <rect class="cls-5" x="92.25" y="29.75" width="3" height="3"/>
    <rect class="cls-4" x="123.5" y="29.75" width="3" height="3"/>
    <rect class="cls-4" x="154.75" y="29.75" width="3" height="3"/>
    <rect class="cls-6" x="186" y="29.75" width="3" height="3"/>
    <rect class="cls-6" x="217.25" y="29.75" width="3" height="3"/>
    <rect class="cls-4" x="248.5" y="29.75" width="3" height="3"/>
    <rect class="cls-4" x="279.75" y="29.75" width="3" height="3"/>
    <rect class="cls-4" x="311" y="29.75" width="3" height="3"/>
    <rect class="cls-6" x="342.25" y="29.75" width="3" height="3"/>
    <rect class="cls-4" x="373.5" y="29.75" width="3" height="3"/>
    <rect class="cls-6" x="404.75" y="29.75" width="3" height="3"/>
    <rect class="cls-6" x="436" y="29.75" width="3" height="3"/>
    <rect class="cls-5" x="455.75" y="18.25" width="3" height="3"/>
    <rect class="cls-4" x="498.5" y="29.75" width="1.5" height="3"/>
    <rect class="cls-4" x="0" y="61" width="1.5" height="3"/>
    <rect class="cls-5" x="29.75" y="61" width="3" height="3"/>
    <rect class="cls-6" x="61" y="61" width="3" height="3"/>
    <rect class="cls-4" x="92.25" y="61" width="3" height="3"/>
    <rect class="cls-4" x="123.5" y="61" width="3" height="3"/>
    <rect class="cls-4" x="154.75" y="61" width="3" height="3"/>
    <rect class="cls-4" x="186" y="61" width="3" height="3"/>
    <rect class="cls-4" x="217.25" y="61" width="3" height="3"/>
    <rect class="cls-6" x="248.5" y="61" width="3" height="3"/>
    <rect class="cls-4" x="279.75" y="61" width="3" height="3"/>
    <rect class="cls-6" x="311" y="61" width="3" height="3"/>
    <rect class="cls-4" x="342.25" y="61" width="3" height="3"/>
    <rect class="cls-4" x="373.5" y="61" width="3" height="3"/>
    <rect class="cls-4" x="404.75" y="61" width="3" height="3"/>
    <rect class="cls-5" x="436" y="61" width="3" height="3"/>
    <rect class="cls-6" x="467.25" y="61" width="3" height="3"/>
    <rect class="cls-6" x="498.5" y="61" width="1.5" height="3"/>
    <rect class="cls-4" x="0" y="92.25" width="1.5" height="3"/>
    <rect class="cls-4" x="29.75" y="92.25" width="3" height="3"/>
    <rect class="cls-5" x="61" y="92.25" width="3" height="3"/>
    <rect class="cls-4" x="92.25" y="92.25" width="3" height="3"/>
    <rect class="cls-4" x="123.5" y="92.25" width="3" height="3"/>
    <rect class="cls-4" x="154.75" y="92.25" width="3" height="3"/>
    <rect class="cls-6" x="186" y="92.25" width="3" height="3"/>
    <rect class="cls-4" x="217.25" y="92.25" width="3" height="3"/>
    <rect class="cls-4" x="248.5" y="92.25" width="3" height="3"/>
    <rect class="cls-4" x="279.75" y="92.25" width="3" height="3"/>
    <rect class="cls-5" x="299.5" y="80.75" width="3" height="3"/>
    <rect class="cls-4" x="342.25" y="92.25" width="3" height="3"/>
    <rect class="cls-4" x="373.5" y="92.25" width="3" height="3"/>
    <rect class="cls-4" x="404.75" y="92.25" width="3" height="3"/>
    <rect class="cls-6" x="436" y="92.25" width="3" height="3"/>
    <rect class="cls-4" x="467.25" y="92.25" width="3" height="3"/>
    <rect class="cls-4" x="498.5" y="92.25" width="1.5" height="3"/>
    <rect class="cls-4" x="0" y="123.5" width="1.5" height="3"/>
    <rect class="cls-4" x="29.75" y="123.5" width="3" height="3"/>
    <rect class="cls-6" x="61" y="123.5" width="3" height="3"/>
    <rect class="cls-4" x="92.25" y="123.5" width="3" height="3"/>
    <rect class="cls-6" x="123.5" y="123.5" width="3" height="3"/>
    <rect class="cls-5" x="143.25" y="112" width="3" height="3"/>
    <rect class="cls-4" x="186" y="123.5" width="3" height="3"/>
    <rect class="cls-6" x="217.25" y="123.5" width="3" height="3"/>
    <rect class="cls-4" x="248.5" y="123.5" width="3" height="3"/>
    <rect class="cls-4" x="279.75" y="123.5" width="3" height="3"/>
    <rect class="cls-6" x="311" y="123.5" width="3" height="3"/>
    <rect class="cls-6" x="342.25" y="123.5" width="3" height="3"/>
    <rect class="cls-6" x="373.5" y="123.5" width="3" height="3"/>
    <rect class="cls-4" x="404.75" y="123.5" width="3" height="3"/>
    <rect class="cls-4" x="436" y="123.5" width="3" height="3"/>
    <rect class="cls-4" x="467.25" y="123.5" width="3" height="3"/>
    <rect class="cls-6" x="498.5" y="123.5" width="1.5" height="3"/>
    <rect class="cls-4" x="0" y="154.75" width="1.5" height="3"/>
    <rect class="cls-4" x="29.75" y="154.75" width="3" height="3"/>
    <rect class="cls-6" x="61" y="154.75" width="3" height="3"/>
    <rect class="cls-4" x="92.25" y="154.75" width="3" height="3"/>
    <rect class="cls-6" x="123.5" y="154.75" width="3" height="3"/>
    <rect class="cls-4" x="154.75" y="154.75" width="3" height="3"/>
    <rect class="cls-6" x="186" y="154.75" width="3" height="3"/>
    <rect class="cls-4" x="217.25" y="154.75" width="3" height="3"/>
    <rect class="cls-4" x="248.5" y="154.75" width="3" height="3"/>
    <rect class="cls-4" x="279.75" y="154.75" width="3" height="3"/>
    <rect class="cls-6" x="311" y="154.75" width="3" height="3"/>
    <rect class="cls-4" x="342.25" y="154.75" width="3" height="3"/>
    <rect class="cls-5" x="373.5" y="154.75" width="3" height="3"/>
    <rect class="cls-4" x="404.75" y="154.75" width="3" height="3"/>
    <rect class="cls-4" x="436" y="154.75" width="3" height="3"/>
    <rect class="cls-4" x="467.25" y="154.75" width="3" height="3"/>
    <rect class="cls-5" x="498.5" y="154.75" width="1.5" height="3"/>
    <rect class="cls-6" x="0" y="186" width="1.5" height="3"/>
    <rect class="cls-6" x="29.75" y="186" width="3" height="3"/>
    <rect class="cls-4" x="61" y="186" width="3" height="3"/>
    <rect class="cls-4" x="92.25" y="186" width="3" height="3"/>
    <rect class="cls-6" x="123.5" y="186" width="3" height="3"/>
    <rect class="cls-5" x="154.75" y="186" width="3" height="3"/>
    <rect class="cls-6" x="186" y="186" width="3" height="3"/>
    <rect class="cls-4" x="217.25" y="186" width="3" height="3"/>
    <rect class="cls-4" x="248.5" y="186" width="3" height="3"/>
    <rect class="cls-5" x="279.75" y="186" width="3" height="3"/>
    <rect class="cls-4" x="311" y="186" width="3" height="3"/>
    <rect class="cls-4" x="342.25" y="186" width="3" height="3"/>
    <rect class="cls-4" x="373.5" y="186" width="3" height="3"/>
    <rect class="cls-4" x="404.75" y="186" width="3" height="3"/>
    <rect class="cls-6" x="436" y="186" width="3" height="3"/>
    <rect class="cls-4" x="467.25" y="186" width="3" height="3"/>
    <rect class="cls-6" x="498.5" y="186" width="1.5" height="3"/>
    <rect class="cls-6" x="0" y="217.25" width="1.5" height="3"/>
    <rect class="cls-4" x="29.75" y="217.25" width="3" height="3"/>
    <rect class="cls-6" x="61" y="217.25" width="3" height="3"/>
    <rect class="cls-4" x="92.25" y="217.25" width="3" height="3"/>
    <rect class="cls-6" x="123.5" y="217.25" width="3" height="3"/>
    <rect class="cls-5" x="154.75" y="217.25" width="3" height="3"/>
    <rect class="cls-4" x="186" y="217.25" width="3" height="3"/>
    <rect class="cls-4" x="217.25" y="217.25" width="3" height="3"/>
    <rect class="cls-4" x="248.5" y="217.25" width="3" height="3"/>
    <rect class="cls-6" x="279.75" y="217.25" width="3" height="3"/>
    <rect class="cls-6" x="311" y="217.25" width="3" height="3"/>
    <rect class="cls-4" x="342.25" y="217.25" width="3" height="3"/>
    <rect class="cls-4" x="373.5" y="217.25" width="3" height="3"/>
    <rect class="cls-6" x="404.75" y="217.25" width="3" height="3"/>
    <rect class="cls-5" x="436" y="217.25" width="3" height="3"/>
    <rect class="cls-6" x="467.25" y="217.25" width="3" height="3"/>
    <rect class="cls-4" x="498.5" y="217.25" width="1.5" height="3"/>
    <rect class="cls-5" x="0" y="248.5" width="1.5" height="3"/>
    <rect class="cls-5" x="18.25" y="237" width="3" height="3"/>
    <rect class="cls-4" x="61" y="248.5" width="3" height="3"/>
    <rect class="cls-4" x="92.25" y="248.5" width="3" height="3"/>
    <rect class="cls-6" x="123.5" y="248.5" width="3" height="3"/>
    <rect class="cls-4" x="154.75" y="248.5" width="3" height="3"/>
    <rect class="cls-6" x="186" y="248.5" width="3" height="3"/>
    <rect class="cls-4" x="217.25" y="248.5" width="3" height="3"/>
    <rect class="cls-5" x="237" y="237" width="3" height="3"/>
    <rect class="cls-4" x="279.75" y="248.5" width="3" height="3"/>
    <rect class="cls-4" x="311" y="248.5" width="3" height="3"/>
    <rect class="cls-4" x="342.25" y="248.5" width="3" height="3"/>
    <rect class="cls-4" x="373.5" y="248.5" width="3" height="3"/>
    <rect class="cls-4" x="404.75" y="248.5" width="3" height="3"/>
    <rect class="cls-4" x="436" y="248.5" width="3" height="3"/>
    <rect class="cls-6" x="467.25" y="248.5" width="3" height="3"/>
    <rect class="cls-4" x="498.5" y="248.5" width="1.5" height="3"/>
    <rect class="cls-4" x="0" y="279.75" width="1.5" height="3"/>
    <rect class="cls-4" x="29.75" y="279.75" width="3" height="3"/>
    <rect class="cls-6" x="61" y="279.75" width="3" height="3"/>
    <rect class="cls-4" x="92.25" y="279.75" width="3" height="3"/>
    <rect class="cls-4" x="123.5" y="279.75" width="3" height="3"/>
    <rect class="cls-4" x="154.75" y="279.75" width="3" height="3"/>
    <rect class="cls-4" x="186" y="279.75" width="3" height="3"/>
    <rect class="cls-4" x="217.25" y="279.75" width="3" height="3"/>
    <rect class="cls-4" x="248.5" y="279.75" width="3" height="3"/>
    <rect class="cls-4" x="279.75" y="279.75" width="3" height="3"/>
    <rect class="cls-6" x="311" y="279.75" width="3" height="3"/>
    <rect class="cls-4" x="342.25" y="279.75" width="3" height="3"/>
    <rect class="cls-4" x="373.5" y="279.75" width="3" height="3"/>
    <rect class="cls-6" x="404.75" y="279.75" width="3" height="3"/>
    <rect class="cls-4" x="436" y="279.75" width="3" height="3"/>
    <rect class="cls-4" x="467.25" y="279.75" width="3" height="3"/>
    <rect class="cls-4" x="498.5" y="279.75" width="1.5" height="3"/>
    <rect class="cls-4" x="0" y="311" width="1.5" height="3"/>
    <rect class="cls-4" x="29.75" y="311" width="3" height="3"/>
    <rect class="cls-6" x="61" y="311" width="3" height="3"/>
    <rect class="cls-5" x="92.25" y="311" width="3" height="3"/>
    <rect class="cls-6" x="123.5" y="311" width="3" height="3"/>
    <rect class="cls-4" x="154.75" y="311" width="3" height="3"/>
    <rect class="cls-6" x="186" y="311" width="3" height="3"/>
    <rect class="cls-6" x="217.25" y="311" width="3" height="3"/>
    <rect class="cls-4" x="248.5" y="311" width="3" height="3"/>
    <rect class="cls-4" x="279.75" y="311" width="3" height="3"/>
    <rect class="cls-4" x="311" y="311" width="3" height="3"/>
    <rect class="cls-4" x="342.25" y="311" width="3" height="3"/>
    <rect class="cls-5" x="362" y="299.5" width="3" height="3"/>
    <rect class="cls-6" x="404.75" y="311" width="3" height="3"/>
    <rect class="cls-6" x="436" y="311" width="3" height="3"/>
    <rect class="cls-4" x="467.25" y="311" width="3" height="3"/>
    <rect class="cls-5" x="487" y="299.5" width="3" height="3"/>
    <rect class="cls-5" x="0" y="342.25" width="1.5" height="3"/>
    <rect class="cls-4" x="29.75" y="342.25" width="3" height="3"/>
    <rect class="cls-6" x="61" y="342.25" width="3" height="3"/>
    <rect class="cls-4" x="92.25" y="342.25" width="3" height="3"/>
    <rect class="cls-4" x="123.5" y="342.25" width="3" height="3"/>
    <rect class="cls-4" x="154.75" y="342.25" width="3" height="3"/>
    <rect class="cls-6" x="186" y="342.25" width="3" height="3"/>
    <rect class="cls-5" x="205.75" y="330.75" width="3" height="3"/>
    <rect class="cls-4" x="248.5" y="342.25" width="3" height="3"/>
    <rect class="cls-4" x="279.75" y="342.25" width="3" height="3"/>
    <rect class="cls-6" x="311" y="342.25" width="3" height="3"/>
    <rect class="cls-4" x="342.25" y="342.25" width="3" height="3"/>
    <rect class="cls-4" x="373.5" y="342.25" width="3" height="3"/>
    <rect class="cls-4" x="404.75" y="342.25" width="3" height="3"/>
    <rect class="cls-6" x="436" y="342.25" width="3" height="3"/>
    <rect class="cls-6" x="467.25" y="342.25" width="3" height="3"/>
    <rect class="cls-4" x="498.5" y="342.25" width="1.5" height="3"/>
    <rect class="cls-5" x="0" y="373.5" width="1.5" height="3"/>
    <rect class="cls-4" x="29.75" y="373.5" width="3" height="3"/>
    <rect class="cls-4" x="61" y="373.5" width="3" height="3"/>
    <rect class="cls-5" x="80.75" y="362" width="3" height="3"/>
    <rect class="cls-6" x="123.5" y="373.5" width="3" height="3"/>
    <rect class="cls-4" x="154.75" y="373.5" width="3" height="3"/>
    <rect class="cls-4" x="186" y="373.5" width="3" height="3"/>
    <rect class="cls-6" x="217.25" y="373.5" width="3" height="3"/>
    <rect class="cls-4" x="248.5" y="373.5" width="3" height="3"/>
    <rect class="cls-6" x="279.75" y="373.5" width="3" height="3"/>
    <rect class="cls-4" x="311" y="373.5" width="3" height="3"/>
    <rect class="cls-5" x="342.25" y="373.5" width="3" height="3"/>
    <rect class="cls-4" x="373.5" y="373.5" width="3" height="3"/>
    <rect class="cls-6" x="404.75" y="373.5" width="3" height="3"/>
    <rect class="cls-4" x="436" y="373.5" width="3" height="3"/>
    <rect class="cls-4" x="467.25" y="373.5" width="3" height="3"/>
    <rect class="cls-4" x="498.5" y="373.5" width="1.5" height="3"/>
    <rect class="cls-4" x="0" y="404.75" width="1.5" height="3"/>
    <rect class="cls-6" x="29.75" y="404.75" width="3" height="3"/>
    <rect class="cls-4" x="61" y="404.75" width="3" height="3"/>
    <rect class="cls-4" x="92.25" y="404.75" width="3" height="3"/>
    <rect class="cls-4" x="123.5" y="404.75" width="3" height="3"/>
    <rect class="cls-4" x="154.75" y="404.75" width="3" height="3"/>
    <rect class="cls-4" x="186" y="404.75" width="3" height="3"/>
    <rect class="cls-4" x="217.25" y="404.75" width="3" height="3"/>
    <rect class="cls-4" x="248.5" y="404.75" width="3" height="3"/>
    <rect class="cls-4" x="279.75" y="404.75" width="3" height="3"/>
    <rect class="cls-5" x="311" y="404.75" width="3" height="3"/>
    <rect class="cls-4" x="342.25" y="404.75" width="3" height="3"/>
    <rect class="cls-4" x="373.5" y="404.75" width="3" height="3"/>
    <rect class="cls-5" x="404.75" y="404.75" width="3" height="3"/>
    <rect class="cls-4" x="436" y="404.75" width="3" height="3"/>
    <rect class="cls-6" x="467.25" y="404.75" width="3" height="3"/>
    <rect class="cls-6" x="498.5" y="404.75" width="1.5" height="3"/>
    <rect class="cls-6" x="0" y="436" width="1.5" height="3"/>
    <rect class="cls-4" x="29.75" y="436" width="3" height="3"/>
    <rect class="cls-5" x="49.5" y="424.5" width="3" height="3"/>
    <rect class="cls-6" x="92.25" y="436" width="3" height="3"/>
    <rect class="cls-4" x="123.5" y="436" width="3" height="3"/>
    <rect class="cls-6" x="154.75" y="436" width="3" height="3"/>
    <rect class="cls-4" x="186" y="436" width="3" height="3"/>
    <rect class="cls-4" x="217.25" y="436" width="3" height="3"/>
    <rect class="cls-6" x="248.5" y="436" width="3" height="3"/>
    <rect class="cls-4" x="279.75" y="436" width="3" height="3"/>
    <rect class="cls-6" x="311" y="436" width="3" height="3"/>
    <rect class="cls-4" x="342.25" y="436" width="3" height="3"/>
    <rect class="cls-4" x="373.5" y="436" width="3" height="3"/>
    <rect class="cls-5" x="404.75" y="436" width="3" height="3"/>
    <rect class="cls-6" x="436" y="436" width="3" height="3"/>
    <rect class="cls-4" x="467.25" y="436" width="3" height="3"/>
    <rect class="cls-6" x="498.5" y="436" width="1.5" height="3"/>
    <rect class="cls-4" x="0" y="467.25" width="1.5" height="3"/>
    <rect class="cls-4" x="29.75" y="467.25" width="3" height="3"/>
    <rect class="cls-6" x="61" y="467.25" width="3" height="3"/>
    <rect class="cls-4" x="92.25" y="467.25" width="3" height="3"/>
    <rect class="cls-6" x="123.5" y="467.25" width="3" height="3"/>
    <rect class="cls-4" x="154.75" y="467.25" width="3" height="3"/>
    <rect class="cls-5" x="174.5" y="455.75" width="3" height="3"/>
    <rect class="cls-4" x="217.25" y="467.25" width="3" height="3"/>
    <rect class="cls-4" x="248.5" y="467.25" width="3" height="3"/>
    <rect class="cls-4" x="279.75" y="467.25" width="3" height="3"/>
    <rect class="cls-4" x="311" y="467.25" width="3" height="3"/>
    <rect class="cls-5" x="342.25" y="467.25" width="3" height="3"/>
    <rect class="cls-4" x="373.5" y="467.25" width="3" height="3"/>
    <rect class="cls-6" x="404.75" y="467.25" width="3" height="3"/>
    <rect class="cls-6" x="436" y="467.25" width="3" height="3"/>
    <rect class="cls-4" x="467.25" y="467.25" width="3" height="3"/>
    <rect class="cls-4" x="498.5" y="467.25" width="1.5" height="3"/>
    <rect class="cls-4" x="0" y="498.5" width="1.5" height="1.5"/>
    <rect class="cls-4" x="29.75" y="498.5" width="3" height="1.5"/>
    <rect class="cls-6" x="61" y="498.5" width="3" height="1.5"/>
    <rect class="cls-4" x="92.25" y="498.5" width="3" height="1.5"/>
    <rect class="cls-4" x="123.5" y="498.5" width="3" height="1.5"/>
    <rect class="cls-6" x="154.75" y="498.5" width="3" height="1.5"/>
    <rect class="cls-4" x="186" y="498.5" width="3" height="1.5"/>
    <rect class="cls-4" x="217.25" y="498.5" width="3" height="1.5"/>
    <rect class="cls-4" x="248.5" y="498.5" width="3" height="1.5"/>
    <rect class="cls-4" x="279.75" y="498.5" width="3" height="1.5"/>
    <rect class="cls-4" x="311" y="498.5" width="3" height="1.5"/>
    <rect class="cls-4" x="342.25" y="498.5" width="3" height="1.5"/>
    <rect class="cls-4" x="373.5" y="498.5" width="3" height="1.5"/>
    <rect class="cls-6" x="404.75" y="498.5" width="3" height="1.5"/>
    <rect class="cls-5" x="424.5" y="487" width="3" height="3"/>
    <rect class="cls-5" x="455.75" y="487" width="3" height="3"/>
    <rect class="cls-4" x="498.5" y="498.5" width="1.5" height="1.5"/>
  </g>
</svg>